<svg width="342" height="49" viewBox="0 0 342 49" fill="none" xmlns="http://www.w3.org/2000/svg">
<path d="M7.659 0.0253906H0V47.9539H22.046V40.9016H7.659V0.0253906Z" fill="#EDEDEC"/>
<path d="M49.0872 20.3598C48.1092 18.7622 46.7222 17.5074 44.9242 16.5941C43.1262 15.6812 41.3162 15.2246 39.4962 15.2246C37.1412 15.2246 34.9882 15.6698 33.0352 16.5597C31.0802 17.4496 29.4042 18.6718 28.0062 20.223C26.6072 21.7752 25.5192 23.567 24.7422 25.5973C23.9642 27.6292 23.5762 29.7638 23.5762 31.9998C23.5762 34.2826 23.9642 36.4278 24.7422 38.4357C25.5192 40.445 26.6072 42.2253 28.0062 43.7765C29.4042 45.3287 31.0802 46.5495 33.0352 47.4394C34.9882 48.3293 37.1412 48.7745 39.4962 48.7745C41.3162 48.7745 43.1262 48.3178 44.9242 47.4054C46.7222 46.4931 48.1102 45.2378 49.0872 43.6397V47.9534H56.3462V16.0466H49.0872V20.3598ZM48.4212 35.9022C47.9772 37.135 47.3552 38.2076 46.5562 39.1204C45.7562 40.0337 44.7912 40.7639 43.6592 41.3115C42.5262 41.8595 41.2712 42.133 39.8952 42.133C38.5182 42.133 37.2752 41.8595 36.1652 41.3115C35.0542 40.7635 34.1002 40.0337 33.3012 39.1204C32.5022 38.2076 31.8912 37.135 31.4692 35.9022C31.0472 34.6699 30.8372 33.3688 30.8372 31.9998C30.8372 30.6302 31.0472 29.3291 31.4692 28.0968C31.8902 26.8645 32.5022 25.7924 33.3012 24.8791C34.1002 23.9667 35.0552 23.2356 36.1652 22.6881C37.2752 22.1401 38.5182 21.8665 39.8952 21.8665C41.2712 21.8665 42.5262 22.1401 43.6592 22.6881C44.7912 23.2361 45.7562 23.9667 46.5562 24.8791C47.3552 25.7924 47.9772 26.8645 48.4212 28.0968C48.8642 29.3291 49.0872 30.6302 49.0872 31.9998C49.0872 33.3688 48.8642 34.6699 48.4212 35.9022Z" fill="#EDEDEC"/>
<path d="M108.1 20.3598C107.122 18.7622 105.735 17.5074 103.937 16.5941C102.139 15.6812 100.329 15.2246 98.5088 15.2246C96.1538 15.2246 94.0018 15.6698 92.0478 16.5597C90.0938 17.4496 88.4178 18.6718 87.0188 20.223C85.6198 21.7752 84.5318 23.567 83.7548 25.5973C82.9778 27.6292 82.5898 29.7638 82.5898 31.9998C82.5898 34.2826 82.9778 36.4278 83.7548 38.4357C84.5318 40.445 85.6198 42.2253 87.0188 43.7765C88.4178 45.3287 90.0928 46.5495 92.0478 47.4394C94.0008 48.3293 96.1538 48.7745 98.5088 48.7745C100.329 48.7745 102.139 48.3178 103.937 47.4054C105.735 46.4931 107.123 45.2378 108.1 43.6397V47.9534H115.36V16.0466H108.1V20.3598ZM107.434 35.9022C106.989 37.135 106.368 38.2076 105.569 39.1204C104.769 40.0337 103.804 40.7639 102.671 41.3115C101.539 41.8595 100.284 42.133 98.9078 42.133C97.5308 42.133 96.2868 41.8595 95.1778 41.3115C94.0668 40.7635 93.1128 40.0337 92.3138 39.1204C91.5138 38.2076 90.9038 37.135 90.4818 35.9022C90.0588 34.6699 89.8498 33.3688 89.8498 31.9998C89.8498 30.6302 90.0588 29.3291 90.4818 28.0968C90.9028 26.8645 91.5138 25.7924 92.3138 24.8791C93.1128 23.9667 94.0678 23.2356 95.1778 22.6881C96.2868 22.1401 97.5308 21.8665 98.9078 21.8665C100.284 21.8665 101.539 22.1401 102.671 22.6881C103.804 23.2361 104.769 23.9667 105.569 24.8791C106.368 25.7924 106.989 26.8645 107.434 28.0968C107.877 29.3291 108.1 30.6302 108.1 31.9998C108.1 33.3688 107.877 34.6699 107.434 35.9022Z" fill="#EDEDEC"/>
<path d="M194.999 0.0253906H187.74V47.9539H194.999V0.0253906Z" fill="#EDEDEC"/>
<path d="M62.0742 47.9533H69.3342V23.3899H81.7892V16.0469H62.0742V47.9533Z" fill="#EDEDEC"/>
<path d="M144.464 16.0469L135.339 40.4802L126.215 16.0469H118.861L130.777 47.9533H139.901L151.817 16.0469H144.464Z" fill="#EDEDEC"/>
<path d="M167.652 15.2266C158.762 15.2266 151.725 22.737 151.725 32.0008C151.725 42.2417 158.536 48.7751 168.582 48.7751C174.205 48.7751 177.795 46.5649 182.181 41.7515L177.276 37.8505C177.273 37.8543 173.574 42.847 168.051 42.847C161.631 42.847 158.928 37.5263 158.928 34.7734H183.013C184.278 24.2327 177.537 15.2266 167.652 15.2266ZM158.947 29.2279C159.003 28.6139 159.839 21.1542 167.594 21.1542C175.349 21.1542 176.291 28.6129 176.345 29.2279H158.947Z" fill="#EDEDEC"/>
<path d="M308.102 47.9999V1.91992H326.406C329.691 1.91992 332.486 2.45325 334.79 3.51992C337.094 4.58659 338.843 6.12259 340.038 8.12792C341.275 10.1333 341.894 12.5439 341.894 15.3599C341.894 18.1759 341.275 20.6079 340.038 22.6559C338.843 24.6613 337.094 26.2186 334.79 27.3279C332.486 28.4373 329.691 28.9919 326.406 28.9919H311.942V24.3839H326.214C329.627 24.3839 332.208 23.6159 333.958 22.0799C335.75 20.5013 336.646 18.2613 336.646 15.3599C336.646 12.4586 335.771 10.2613 334.022 8.76792C332.272 7.27459 329.67 6.52792 326.214 6.52792H313.35V47.9999H308.102Z" fill="#7F7E77"/>
<path d="M282.103 48.6403C278.946 48.6403 276.023 48.0643 273.335 46.9123C270.69 45.7176 268.386 44.0749 266.423 41.9843C264.461 39.8509 262.946 37.3549 261.879 34.4963C260.813 31.5949 260.279 28.4163 260.279 24.9603C260.279 21.5043 260.813 18.3469 261.879 15.4883C262.946 12.5869 264.439 10.0909 266.359 8.00027C268.322 5.86694 270.626 4.22427 273.271 3.07227C275.959 1.87761 278.882 1.28027 282.039 1.28027C285.495 1.28027 288.589 1.98427 291.319 3.39227C294.093 4.80027 296.354 6.78427 298.103 9.34427C299.895 11.9043 301.005 14.8909 301.431 18.3043H296.183C295.671 14.5069 294.157 11.5203 291.639 9.34427C289.165 7.12561 285.986 6.01627 282.103 6.01627C278.818 6.01627 275.938 6.82694 273.463 8.44827C270.989 10.0269 269.069 12.2456 267.703 15.1043C266.338 17.9203 265.655 21.2056 265.655 24.9603C265.655 28.7149 266.338 32.0216 267.703 34.8803C269.069 37.6963 270.989 39.9149 273.463 41.5363C275.938 43.1149 278.797 43.9043 282.039 43.9043C286.007 43.9043 289.25 42.7949 291.767 40.5763C294.327 38.3576 295.842 35.3709 296.311 31.6163H301.559C301.133 35.0296 300.023 38.0163 298.231 40.5763C296.482 43.1363 294.221 45.1203 291.447 46.5283C288.717 47.9363 285.602 48.6403 282.103 48.6403Z" fill="#7F7E77"/>
<path d="M206.504 47.9999V1.91992H214.568L231.208 46.3359H228.776L245.288 1.91992H253.48V47.9999H248.296V4.67192H249L232.936 47.9999H226.664L210.6 5.05592H211.304V47.9999H206.504Z" fill="#7F7E77"/>
</svg>
