<svg width="342" height="50" viewBox="0 0 342 50" fill="none" xmlns="http://www.w3.org/2000/svg">
<path d="M7.659 0.625H0V48.5535H22.046V41.5012H7.659V0.625Z" fill="#1B1B18"/>
<path d="M49.0872 20.9604C48.1092 19.3628 46.7222 18.108 44.9242 17.1947C43.1262 16.2818 41.3162 15.8252 39.4962 15.8252C37.1412 15.8252 34.9882 16.2704 33.0352 17.1603C31.0802 18.0502 29.4042 19.2724 28.0062 20.8236C26.6072 22.3758 25.5192 24.1676 24.7422 26.1979C23.9642 28.2298 23.5762 30.3644 23.5762 32.6004C23.5762 34.8832 23.9642 37.0284 24.7422 39.0363C25.5192 41.0456 26.6072 42.8259 28.0062 44.3771C29.4042 45.9293 31.0802 47.1501 33.0352 48.04C34.9882 48.9299 37.1412 49.3751 39.4962 49.3751C41.3162 49.3751 43.1262 48.9184 44.9242 48.006C46.7222 47.0937 48.1102 45.8384 49.0872 44.2403V48.554H56.3462V16.6472H49.0872V20.9604ZM48.4212 36.5028C47.9772 37.7356 47.3552 38.8082 46.5562 39.721C45.7562 40.6343 44.7912 41.3645 43.6592 41.9121C42.5262 42.4601 41.2712 42.7336 39.8952 42.7336C38.5182 42.7336 37.2752 42.4601 36.1652 41.9121C35.0542 41.3641 34.1002 40.6343 33.3012 39.721C32.5022 38.8082 31.8912 37.7356 31.4692 36.5028C31.0472 35.2705 30.8372 33.9694 30.8372 32.6004C30.8372 31.2308 31.0472 29.9297 31.4692 28.6974C31.8902 27.4651 32.5022 26.393 33.3012 25.4797C34.1002 24.5673 35.0552 23.8362 36.1652 23.2887C37.2752 22.7407 38.5182 22.4671 39.8952 22.4671C41.2712 22.4671 42.5262 22.7407 43.6592 23.2887C44.7912 23.8367 45.7562 24.5673 46.5562 25.4797C47.3552 26.393 47.9772 27.4651 48.4212 28.6974C48.8642 29.9297 49.0872 31.2308 49.0872 32.6004C49.0872 33.9694 48.8642 35.2705 48.4212 36.5028Z" fill="#1B1B18"/>
<path d="M108.1 20.9604C107.122 19.3628 105.735 18.108 103.937 17.1947C102.139 16.2818 100.329 15.8252 98.5088 15.8252C96.1538 15.8252 94.0018 16.2704 92.0478 17.1603C90.0938 18.0502 88.4178 19.2724 87.0188 20.8236C85.6198 22.3758 84.5318 24.1676 83.7548 26.1979C82.9778 28.2298 82.5898 30.3644 82.5898 32.6004C82.5898 34.8832 82.9778 37.0284 83.7548 39.0363C84.5318 41.0456 85.6198 42.8259 87.0188 44.3771C88.4178 45.9293 90.0928 47.1501 92.0478 48.04C94.0008 48.9299 96.1538 49.3751 98.5088 49.3751C100.329 49.3751 102.139 48.9184 103.937 48.006C105.735 47.0937 107.123 45.8384 108.1 44.2403V48.554H115.36V16.6472H108.1V20.9604ZM107.434 36.5028C106.989 37.7356 106.368 38.8082 105.569 39.721C104.769 40.6343 103.804 41.3645 102.671 41.9121C101.539 42.4601 100.284 42.7336 98.9078 42.7336C97.5308 42.7336 96.2868 42.4601 95.1778 41.9121C94.0668 41.3641 93.1128 40.6343 92.3138 39.721C91.5138 38.8082 90.9038 37.7356 90.4818 36.5028C90.0588 35.2705 89.8498 33.9694 89.8498 32.6004C89.8498 31.2308 90.0588 29.9297 90.4818 28.6974C90.9028 27.4651 91.5138 26.393 92.3138 25.4797C93.1128 24.5673 94.0678 23.8362 95.1778 23.2887C96.2868 22.7407 97.5308 22.4671 98.9078 22.4671C100.284 22.4671 101.539 22.7407 102.671 23.2887C103.804 23.8367 104.769 24.5673 105.569 25.4797C106.368 26.393 106.989 27.4651 107.434 28.6974C107.877 29.9297 108.1 31.2308 108.1 32.6004C108.1 33.9694 107.877 35.2705 107.434 36.5028Z" fill="#1B1B18"/>
<path d="M194.999 0.625H187.74V48.5535H194.999V0.625Z" fill="#1B1B18"/>
<path d="M62.0742 48.5539H69.3342V23.9905H81.7892V16.6475H62.0742V48.5539Z" fill="#1B1B18"/>
<path d="M144.464 16.6475L135.339 41.0808L126.215 16.6475H118.861L130.777 48.5539H139.901L151.817 16.6475H144.464Z" fill="#1B1B18"/>
<path d="M167.652 15.8262C158.762 15.8262 151.725 23.3366 151.725 32.6004C151.725 42.8413 158.536 49.3747 168.582 49.3747C174.205 49.3747 177.795 47.1645 182.181 42.3511L177.276 38.4501C177.273 38.4539 173.574 43.4466 168.051 43.4466C161.631 43.4466 158.928 38.1259 158.928 35.373H183.013C184.278 24.8323 177.537 15.8262 167.652 15.8262ZM158.947 29.8275C159.003 29.2135 159.839 21.7538 167.594 21.7538C175.349 21.7538 176.291 29.2125 176.345 29.8275H158.947Z" fill="#1B1B18"/>
<path d="M308.102 48.5995V2.51953H326.406C329.691 2.51953 332.486 3.05286 334.79 4.11953C337.094 5.1862 338.843 6.7222 340.038 8.72753C341.275 10.7329 341.894 13.1435 341.894 15.9595C341.894 18.7755 341.275 21.2075 340.038 23.2555C338.843 25.2609 337.094 26.8182 334.79 27.9275C332.486 29.0369 329.691 29.5915 326.406 29.5915H311.942V24.9835H326.214C329.627 24.9835 332.208 24.2155 333.958 22.6795C335.75 21.1009 336.646 18.8609 336.646 15.9595C336.646 13.0582 335.771 10.8609 334.022 9.36753C332.272 7.8742 329.67 7.12753 326.214 7.12753H313.35V48.5995H308.102Z" fill="#868682"/>
<path d="M282.103 49.2399C278.946 49.2399 276.023 48.6639 273.335 47.5119C270.69 46.3172 268.386 44.6746 266.423 42.5839C264.461 40.4506 262.946 37.9545 261.879 35.0959C260.813 32.1945 260.279 29.0159 260.279 25.5599C260.279 22.1039 260.813 18.9465 261.879 16.0879C262.946 13.1865 264.439 10.6905 266.359 8.59988C268.322 6.46655 270.626 4.82388 273.271 3.67188C275.959 2.47722 278.882 1.87988 282.039 1.87988C285.495 1.87988 288.589 2.58388 291.319 3.99188C294.093 5.39988 296.354 7.38388 298.103 9.94388C299.895 12.5039 301.005 15.4906 301.431 18.9039H296.183C295.671 15.1066 294.157 12.1199 291.639 9.94388C289.165 7.72522 285.986 6.61588 282.103 6.61588C278.818 6.61588 275.938 7.42655 273.463 9.04788C270.989 10.6265 269.069 12.8452 267.703 15.7039C266.338 18.5199 265.655 21.8052 265.655 25.5599C265.655 29.3145 266.338 32.6212 267.703 35.4799C269.069 38.2959 270.989 40.5145 273.463 42.1359C275.938 43.7146 278.797 44.5039 282.039 44.5039C286.007 44.5039 289.25 43.3946 291.767 41.1759C294.327 38.9572 295.842 35.9705 296.311 32.2159H301.559C301.133 35.6292 300.023 38.6159 298.231 41.1759C296.482 43.7359 294.221 45.7199 291.447 47.1279C288.717 48.5359 285.602 49.2399 282.103 49.2399Z" fill="#868682"/>
<path d="M206.504 48.5995V2.51953H214.568L231.208 46.9355H228.776L245.288 2.51953H253.48V48.5995H248.296V5.27153H249L232.936 48.5995H226.664L210.6 5.65553H211.304V48.5995H206.504Z" fill="#868682"/>
</svg>
