<?xml version="1.0" encoding="utf-8"?>
<svg width="400px" height="64px" viewBox="0 0 400 64" fill="none" xmlns="http://www.w3.org/2000/svg">
  <g transform="matrix(1, 0, 0, 1, -68.519501, 0)">
    <g style="">
      <title>Laravel</title>
      <path d="M103.659 7.625H96V55.5535H118.046V48.5012H103.659V7.625Z" style="fill: rgb(22, 22, 21);"/>
      <path d="M145.087 27.9603C144.109 26.3627 142.722 25.1079 140.924 24.1946C139.126 23.2817 137.316 22.8251 135.496 22.8251C133.141 22.8251 130.988 23.2703 129.035 24.1602C127.08 25.0501 125.404 26.2723 124.006 27.8235C122.607 29.3757 121.519 31.1675 120.742 33.1978C119.964 35.2297 119.576 37.3643 119.576 39.6003C119.576 41.8831 119.964 44.0283 120.742 46.0362C121.519 48.0455 122.607 49.8258 124.006 51.377C125.404 52.9292 127.08 54.15 129.035 55.0399C130.988 55.9298 133.141 56.375 135.496 56.375C137.316 56.375 139.126 55.9183 140.924 55.0059C142.722 54.0936 144.11 52.8383 145.087 51.2402V55.5539H152.346V23.6471H145.087V27.9603ZM144.421 43.5027C143.977 44.7355 143.355 45.8081 142.556 46.7209C141.756 47.6342 140.791 48.3644 139.659 48.912C138.526 49.46 137.271 49.7335 135.895 49.7335C134.518 49.7335 133.275 49.46 132.165 48.912C131.054 48.364 130.1 47.6342 129.301 46.7209C128.502 45.8081 127.891 44.7355 127.469 43.5027C127.047 42.2704 126.837 40.9693 126.837 39.6003C126.837 38.2307 127.047 36.9296 127.469 35.6973C127.89 34.465 128.502 33.3929 129.301 32.4796C130.1 31.5672 131.055 30.8361 132.165 30.2886C133.275 29.7406 134.518 29.467 135.895 29.467C137.271 29.467 138.526 29.7406 139.659 30.2886C140.791 30.8366 141.756 31.5672 142.556 32.4796C143.355 33.3929 143.977 34.465 144.421 35.6973C144.864 36.9296 145.087 38.2307 145.087 39.6003C145.087 40.9693 144.864 42.2704 144.421 43.5027Z" style="fill: rgb(22, 22, 21);"/>
      <path d="M204.099 27.9603C203.121 26.3627 201.734 25.1079 199.936 24.1946C198.138 23.2817 196.328 22.8251 194.508 22.8251C192.153 22.8251 190.001 23.2703 188.047 24.1602C186.093 25.0501 184.417 26.2723 183.018 27.8235C181.619 29.3757 180.531 31.1675 179.754 33.1978C178.977 35.2297 178.589 37.3643 178.589 39.6003C178.589 41.8831 178.977 44.0283 179.754 46.0362C180.531 48.0455 181.619 49.8258 183.018 51.377C184.417 52.9292 186.092 54.15 188.047 55.0399C190 55.9298 192.153 56.375 194.508 56.375C196.328 56.375 198.138 55.9183 199.936 55.0059C201.734 54.0936 203.122 52.8383 204.099 51.2402V55.5539H211.359V23.6471H204.099V27.9603ZM203.433 43.5027C202.988 44.7355 202.367 45.8081 201.568 46.7209C200.768 47.6342 199.803 48.3644 198.67 48.912C197.538 49.46 196.283 49.7335 194.907 49.7335C193.53 49.7335 192.286 49.46 191.177 48.912C190.066 48.364 189.112 47.6342 188.313 46.7209C187.513 45.8081 186.903 44.7355 186.481 43.5027C186.058 42.2704 185.849 40.9693 185.849 39.6003C185.849 38.2307 186.058 36.9296 186.481 35.6973C186.902 34.465 187.513 33.3929 188.313 32.4796C189.112 31.5672 190.067 30.8361 191.177 30.2886C192.286 29.7406 193.53 29.467 194.907 29.467C196.283 29.467 197.538 29.7406 198.67 30.2886C199.803 30.8366 200.768 31.5672 201.568 32.4796C202.367 33.3929 202.988 34.465 203.433 35.6973C203.876 36.9296 204.099 38.2307 204.099 39.6003C204.099 40.9693 203.876 42.2704 203.433 43.5027Z" style="fill: rgb(22, 22, 21);"/>
      <path d="M291 7.625H283.741V55.5535H291V7.625Z" style="fill: rgb(22, 22, 21);"/>
      <path d="M158.075 55.5535H165.335V30.9901H177.79V23.6471H158.075V55.5535Z" style="fill: rgb(22, 22, 21);"/>
      <path d="M240.465 23.6471L231.34 48.0804L222.216 23.6471H214.862L226.778 55.5535H235.902L247.818 23.6471H240.465Z" style="fill: rgb(22, 22, 21);"/>
      <path d="M263.652 22.8265C254.762 22.8265 247.725 30.3369 247.725 39.6007C247.725 49.8416 254.536 56.375 264.582 56.375C270.205 56.375 273.795 54.1648 278.181 49.3514L273.276 45.4504C273.273 45.4542 269.574 50.4469 264.051 50.4469C257.631 50.4469 254.928 45.1262 254.928 42.3733H279.013C280.278 31.8326 273.537 22.8265 263.652 22.8265ZM254.947 36.8278C255.003 36.2138 255.839 28.7541 263.594 28.7541C271.349 28.7541 272.291 36.2128 272.345 36.8278H254.947Z" style="fill: rgb(22, 22, 21);"/>
    </g>
    <path d="M 304.786 54.482 L 304.786 10.672 L 313.003 10.672 L 329.959 52.9 L 327.481 52.9 L 344.306 10.672 L 352.654 10.672 L 352.654 54.482 L 347.372 54.482 L 347.372 13.288 L 348.089 13.288 L 331.72 54.482 L 325.329 54.482 L 308.96 13.653 L 309.677 13.653 L 309.677 54.482 L 304.786 54.482 Z M 380.962 55.09 C 377.745 55.09 374.777 54.532 372.06 53.417 C 369.343 52.301 366.984 50.74 364.984 48.732 C 362.984 46.724 361.441 44.351 360.354 41.613 C 359.267 38.874 358.724 35.863 358.724 32.577 C 358.724 29.291 359.267 26.279 360.354 23.541 C 361.441 20.803 362.973 18.43 364.952 16.422 C 366.93 14.414 369.278 12.852 371.995 11.737 C 374.712 10.621 377.679 10.063 380.897 10.063 C 384.418 10.063 387.581 10.733 390.386 12.071 C 393.19 13.41 395.494 15.296 397.298 17.73 C 399.103 20.164 400.222 23.004 400.657 26.249 L 395.309 26.249 C 394.788 22.638 393.255 19.789 390.712 17.7 C 388.168 15.611 384.918 14.566 380.962 14.566 C 377.614 14.566 374.68 15.327 372.158 16.848 C 369.636 18.369 367.68 20.478 366.289 23.176 C 364.897 25.874 364.202 29.007 364.202 32.577 C 364.202 36.146 364.897 39.28 366.289 41.978 C 367.68 44.675 369.636 46.785 372.158 48.306 C 374.68 49.827 377.593 50.587 380.897 50.587 C 384.94 50.587 388.255 49.533 390.842 47.423 C 393.429 45.314 394.962 42.475 395.44 38.905 L 400.787 38.905 C 400.353 42.15 399.233 44.99 397.429 47.423 C 395.625 49.857 393.32 51.744 390.516 53.082 C 387.712 54.421 384.527 55.09 380.962 55.09 Z M 406.606 54.482 L 406.606 10.672 L 425.257 10.672 C 428.605 10.672 431.452 11.179 433.8 12.193 C 436.148 13.207 437.941 14.668 439.18 16.574 C 440.42 18.481 441.039 20.773 441.039 23.45 C 441.039 26.127 440.42 28.429 439.18 30.356 C 437.941 32.283 436.148 33.773 433.8 34.828 C 431.452 35.883 428.605 36.41 425.257 36.41 L 410.518 36.41 L 410.518 32.029 L 425.061 32.029 C 428.54 32.029 431.181 31.289 432.985 29.808 C 434.789 28.328 435.691 26.208 435.691 23.45 C 435.691 20.691 434.8 18.602 433.018 17.183 C 431.235 15.763 428.583 15.053 425.061 15.053 L 411.953 15.053 L 411.953 54.482 L 406.606 54.482 Z" style="fill: rgb(134, 134, 130); text-wrap-mode: nowrap;">
      <title>MCP</title>
    </path>
  </g>
</svg>